<mxfile host="Electron" agent="Mozilla/5.0 (Windows NT 10.0; Win64; x64) AppleWebKit/537.36 (KHTML, like Gecko) draw.io/24.7.8 Chrome/128.0.6613.36 Electron/32.0.1 Safari/537.36" version="24.7.8" pages="4">
  <diagram name="БД" id="oAtvyfokqvmV7SOb5Mun">
    <mxGraphModel dx="802" dy="918" grid="1" gridSize="10" guides="1" tooltips="1" connect="1" arrows="1" fold="1" page="1" pageScale="1" pageWidth="827" pageHeight="1169" math="0" shadow="0">
      <root>
        <mxCell id="0" />
        <mxCell id="1" parent="0" />
        <mxCell id="cvSl1I-amtt9uq9q1OwC-1" value="Ингредиент" style="shape=table;startSize=30;container=1;collapsible=1;childLayout=tableLayout;fixedRows=1;rowLines=0;fontStyle=1;align=center;resizeLast=1;html=1;" vertex="1" parent="1">
          <mxGeometry x="320" y="400" width="180" height="240" as="geometry" />
        </mxCell>
        <mxCell id="cvSl1I-amtt9uq9q1OwC-2" value="" style="shape=tableRow;horizontal=0;startSize=0;swimlaneHead=0;swimlaneBody=0;fillColor=none;collapsible=0;dropTarget=0;points=[[0,0.5],[1,0.5]];portConstraint=eastwest;top=0;left=0;right=0;bottom=1;" vertex="1" parent="cvSl1I-amtt9uq9q1OwC-1">
          <mxGeometry y="30" width="180" height="30" as="geometry" />
        </mxCell>
        <mxCell id="cvSl1I-amtt9uq9q1OwC-3" value="PK" style="shape=partialRectangle;connectable=0;fillColor=none;top=0;left=0;bottom=0;right=0;fontStyle=1;overflow=hidden;whiteSpace=wrap;html=1;" vertex="1" parent="cvSl1I-amtt9uq9q1OwC-2">
          <mxGeometry width="30" height="30" as="geometry">
            <mxRectangle width="30" height="30" as="alternateBounds" />
          </mxGeometry>
        </mxCell>
        <mxCell id="cvSl1I-amtt9uq9q1OwC-4" value="ID_Ингредиент" style="shape=partialRectangle;connectable=0;fillColor=none;top=0;left=0;bottom=0;right=0;align=left;spacingLeft=6;fontStyle=5;overflow=hidden;whiteSpace=wrap;html=1;" vertex="1" parent="cvSl1I-amtt9uq9q1OwC-2">
          <mxGeometry x="30" width="150" height="30" as="geometry">
            <mxRectangle width="150" height="30" as="alternateBounds" />
          </mxGeometry>
        </mxCell>
        <mxCell id="cvSl1I-amtt9uq9q1OwC-5" value="" style="shape=tableRow;horizontal=0;startSize=0;swimlaneHead=0;swimlaneBody=0;fillColor=none;collapsible=0;dropTarget=0;points=[[0,0.5],[1,0.5]];portConstraint=eastwest;top=0;left=0;right=0;bottom=0;" vertex="1" parent="cvSl1I-amtt9uq9q1OwC-1">
          <mxGeometry y="60" width="180" height="30" as="geometry" />
        </mxCell>
        <mxCell id="cvSl1I-amtt9uq9q1OwC-6" value="" style="shape=partialRectangle;connectable=0;fillColor=none;top=0;left=0;bottom=0;right=0;editable=1;overflow=hidden;whiteSpace=wrap;html=1;" vertex="1" parent="cvSl1I-amtt9uq9q1OwC-5">
          <mxGeometry width="30" height="30" as="geometry">
            <mxRectangle width="30" height="30" as="alternateBounds" />
          </mxGeometry>
        </mxCell>
        <mxCell id="cvSl1I-amtt9uq9q1OwC-7" value="Название" style="shape=partialRectangle;connectable=0;fillColor=none;top=0;left=0;bottom=0;right=0;align=left;spacingLeft=6;overflow=hidden;whiteSpace=wrap;html=1;" vertex="1" parent="cvSl1I-amtt9uq9q1OwC-5">
          <mxGeometry x="30" width="150" height="30" as="geometry">
            <mxRectangle width="150" height="30" as="alternateBounds" />
          </mxGeometry>
        </mxCell>
        <mxCell id="cvSl1I-amtt9uq9q1OwC-8" value="" style="shape=tableRow;horizontal=0;startSize=0;swimlaneHead=0;swimlaneBody=0;fillColor=none;collapsible=0;dropTarget=0;points=[[0,0.5],[1,0.5]];portConstraint=eastwest;top=0;left=0;right=0;bottom=0;" vertex="1" parent="cvSl1I-amtt9uq9q1OwC-1">
          <mxGeometry y="90" width="180" height="30" as="geometry" />
        </mxCell>
        <mxCell id="cvSl1I-amtt9uq9q1OwC-9" value="" style="shape=partialRectangle;connectable=0;fillColor=none;top=0;left=0;bottom=0;right=0;editable=1;overflow=hidden;whiteSpace=wrap;html=1;" vertex="1" parent="cvSl1I-amtt9uq9q1OwC-8">
          <mxGeometry width="30" height="30" as="geometry">
            <mxRectangle width="30" height="30" as="alternateBounds" />
          </mxGeometry>
        </mxCell>
        <mxCell id="cvSl1I-amtt9uq9q1OwC-10" value="Грамм" style="shape=partialRectangle;connectable=0;fillColor=none;top=0;left=0;bottom=0;right=0;align=left;spacingLeft=6;overflow=hidden;whiteSpace=wrap;html=1;" vertex="1" parent="cvSl1I-amtt9uq9q1OwC-8">
          <mxGeometry x="30" width="150" height="30" as="geometry">
            <mxRectangle width="150" height="30" as="alternateBounds" />
          </mxGeometry>
        </mxCell>
        <mxCell id="cvSl1I-amtt9uq9q1OwC-11" value="" style="shape=tableRow;horizontal=0;startSize=0;swimlaneHead=0;swimlaneBody=0;fillColor=none;collapsible=0;dropTarget=0;points=[[0,0.5],[1,0.5]];portConstraint=eastwest;top=0;left=0;right=0;bottom=0;" vertex="1" parent="cvSl1I-amtt9uq9q1OwC-1">
          <mxGeometry y="120" width="180" height="30" as="geometry" />
        </mxCell>
        <mxCell id="cvSl1I-amtt9uq9q1OwC-12" value="" style="shape=partialRectangle;connectable=0;fillColor=none;top=0;left=0;bottom=0;right=0;editable=1;overflow=hidden;whiteSpace=wrap;html=1;" vertex="1" parent="cvSl1I-amtt9uq9q1OwC-11">
          <mxGeometry width="30" height="30" as="geometry">
            <mxRectangle width="30" height="30" as="alternateBounds" />
          </mxGeometry>
        </mxCell>
        <mxCell id="cvSl1I-amtt9uq9q1OwC-13" value="Белки" style="shape=partialRectangle;connectable=0;fillColor=none;top=0;left=0;bottom=0;right=0;align=left;spacingLeft=6;overflow=hidden;whiteSpace=wrap;html=1;" vertex="1" parent="cvSl1I-amtt9uq9q1OwC-11">
          <mxGeometry x="30" width="150" height="30" as="geometry">
            <mxRectangle width="150" height="30" as="alternateBounds" />
          </mxGeometry>
        </mxCell>
        <mxCell id="cvSl1I-amtt9uq9q1OwC-14" value="" style="shape=tableRow;horizontal=0;startSize=0;swimlaneHead=0;swimlaneBody=0;fillColor=none;collapsible=0;dropTarget=0;points=[[0,0.5],[1,0.5]];portConstraint=eastwest;top=0;left=0;right=0;bottom=0;" vertex="1" parent="cvSl1I-amtt9uq9q1OwC-1">
          <mxGeometry y="150" width="180" height="30" as="geometry" />
        </mxCell>
        <mxCell id="cvSl1I-amtt9uq9q1OwC-15" value="" style="shape=partialRectangle;connectable=0;fillColor=none;top=0;left=0;bottom=0;right=0;editable=1;overflow=hidden;" vertex="1" parent="cvSl1I-amtt9uq9q1OwC-14">
          <mxGeometry width="30" height="30" as="geometry">
            <mxRectangle width="30" height="30" as="alternateBounds" />
          </mxGeometry>
        </mxCell>
        <mxCell id="cvSl1I-amtt9uq9q1OwC-16" value="Жиры" style="shape=partialRectangle;connectable=0;fillColor=none;top=0;left=0;bottom=0;right=0;align=left;spacingLeft=6;overflow=hidden;" vertex="1" parent="cvSl1I-amtt9uq9q1OwC-14">
          <mxGeometry x="30" width="150" height="30" as="geometry">
            <mxRectangle width="150" height="30" as="alternateBounds" />
          </mxGeometry>
        </mxCell>
        <mxCell id="cvSl1I-amtt9uq9q1OwC-28" value="" style="shape=tableRow;horizontal=0;startSize=0;swimlaneHead=0;swimlaneBody=0;fillColor=none;collapsible=0;dropTarget=0;points=[[0,0.5],[1,0.5]];portConstraint=eastwest;top=0;left=0;right=0;bottom=0;" vertex="1" parent="cvSl1I-amtt9uq9q1OwC-1">
          <mxGeometry y="180" width="180" height="30" as="geometry" />
        </mxCell>
        <mxCell id="cvSl1I-amtt9uq9q1OwC-29" value="" style="shape=partialRectangle;connectable=0;fillColor=none;top=0;left=0;bottom=0;right=0;editable=1;overflow=hidden;" vertex="1" parent="cvSl1I-amtt9uq9q1OwC-28">
          <mxGeometry width="30" height="30" as="geometry">
            <mxRectangle width="30" height="30" as="alternateBounds" />
          </mxGeometry>
        </mxCell>
        <mxCell id="cvSl1I-amtt9uq9q1OwC-30" value="Углеводы" style="shape=partialRectangle;connectable=0;fillColor=none;top=0;left=0;bottom=0;right=0;align=left;spacingLeft=6;overflow=hidden;" vertex="1" parent="cvSl1I-amtt9uq9q1OwC-28">
          <mxGeometry x="30" width="150" height="30" as="geometry">
            <mxRectangle width="150" height="30" as="alternateBounds" />
          </mxGeometry>
        </mxCell>
        <mxCell id="cvSl1I-amtt9uq9q1OwC-32" value="" style="shape=tableRow;horizontal=0;startSize=0;swimlaneHead=0;swimlaneBody=0;fillColor=none;collapsible=0;dropTarget=0;points=[[0,0.5],[1,0.5]];portConstraint=eastwest;top=0;left=0;right=0;bottom=0;" vertex="1" parent="cvSl1I-amtt9uq9q1OwC-1">
          <mxGeometry y="210" width="180" height="30" as="geometry" />
        </mxCell>
        <mxCell id="cvSl1I-amtt9uq9q1OwC-33" value="" style="shape=partialRectangle;connectable=0;fillColor=none;top=0;left=0;bottom=0;right=0;editable=1;overflow=hidden;" vertex="1" parent="cvSl1I-amtt9uq9q1OwC-32">
          <mxGeometry width="30" height="30" as="geometry">
            <mxRectangle width="30" height="30" as="alternateBounds" />
          </mxGeometry>
        </mxCell>
        <mxCell id="cvSl1I-amtt9uq9q1OwC-34" value="Калории" style="shape=partialRectangle;connectable=0;fillColor=none;top=0;left=0;bottom=0;right=0;align=left;spacingLeft=6;overflow=hidden;" vertex="1" parent="cvSl1I-amtt9uq9q1OwC-32">
          <mxGeometry x="30" width="150" height="30" as="geometry">
            <mxRectangle width="150" height="30" as="alternateBounds" />
          </mxGeometry>
        </mxCell>
        <mxCell id="cvSl1I-amtt9uq9q1OwC-48" value="Блюдо" style="shape=table;startSize=30;container=1;collapsible=1;childLayout=tableLayout;fixedRows=1;rowLines=0;fontStyle=1;align=center;resizeLast=1;html=1;whiteSpace=wrap;" vertex="1" parent="1">
          <mxGeometry x="20" y="720" width="180" height="120" as="geometry" />
        </mxCell>
        <mxCell id="cvSl1I-amtt9uq9q1OwC-49" value="" style="shape=tableRow;horizontal=0;startSize=0;swimlaneHead=0;swimlaneBody=0;fillColor=none;collapsible=0;dropTarget=0;points=[[0,0.5],[1,0.5]];portConstraint=eastwest;top=0;left=0;right=0;bottom=0;html=1;" vertex="1" parent="cvSl1I-amtt9uq9q1OwC-48">
          <mxGeometry y="30" width="180" height="30" as="geometry" />
        </mxCell>
        <mxCell id="cvSl1I-amtt9uq9q1OwC-50" value="PK" style="shape=partialRectangle;connectable=0;fillColor=none;top=0;left=0;bottom=0;right=0;fontStyle=1;overflow=hidden;html=1;whiteSpace=wrap;" vertex="1" parent="cvSl1I-amtt9uq9q1OwC-49">
          <mxGeometry width="60" height="30" as="geometry">
            <mxRectangle width="60" height="30" as="alternateBounds" />
          </mxGeometry>
        </mxCell>
        <mxCell id="cvSl1I-amtt9uq9q1OwC-51" value="ID_Блюдо" style="shape=partialRectangle;connectable=0;fillColor=none;top=0;left=0;bottom=0;right=0;align=left;spacingLeft=6;fontStyle=5;overflow=hidden;html=1;whiteSpace=wrap;" vertex="1" parent="cvSl1I-amtt9uq9q1OwC-49">
          <mxGeometry x="60" width="120" height="30" as="geometry">
            <mxRectangle width="120" height="30" as="alternateBounds" />
          </mxGeometry>
        </mxCell>
        <mxCell id="cvSl1I-amtt9uq9q1OwC-52" value="" style="shape=tableRow;horizontal=0;startSize=0;swimlaneHead=0;swimlaneBody=0;fillColor=none;collapsible=0;dropTarget=0;points=[[0,0.5],[1,0.5]];portConstraint=eastwest;top=0;left=0;right=0;bottom=1;html=1;" vertex="1" parent="cvSl1I-amtt9uq9q1OwC-48">
          <mxGeometry y="60" width="180" height="30" as="geometry" />
        </mxCell>
        <mxCell id="cvSl1I-amtt9uq9q1OwC-53" value="FK" style="shape=partialRectangle;connectable=0;fillColor=none;top=0;left=0;bottom=0;right=0;fontStyle=1;overflow=hidden;html=1;whiteSpace=wrap;" vertex="1" parent="cvSl1I-amtt9uq9q1OwC-52">
          <mxGeometry width="60" height="30" as="geometry">
            <mxRectangle width="60" height="30" as="alternateBounds" />
          </mxGeometry>
        </mxCell>
        <mxCell id="cvSl1I-amtt9uq9q1OwC-54" value="Состав_ID" style="shape=partialRectangle;connectable=0;fillColor=none;top=0;left=0;bottom=0;right=0;align=left;spacingLeft=6;fontStyle=5;overflow=hidden;html=1;whiteSpace=wrap;" vertex="1" parent="cvSl1I-amtt9uq9q1OwC-52">
          <mxGeometry x="60" width="120" height="30" as="geometry">
            <mxRectangle width="120" height="30" as="alternateBounds" />
          </mxGeometry>
        </mxCell>
        <mxCell id="cvSl1I-amtt9uq9q1OwC-55" value="" style="shape=tableRow;horizontal=0;startSize=0;swimlaneHead=0;swimlaneBody=0;fillColor=none;collapsible=0;dropTarget=0;points=[[0,0.5],[1,0.5]];portConstraint=eastwest;top=0;left=0;right=0;bottom=0;html=1;" vertex="1" parent="cvSl1I-amtt9uq9q1OwC-48">
          <mxGeometry y="90" width="180" height="30" as="geometry" />
        </mxCell>
        <mxCell id="cvSl1I-amtt9uq9q1OwC-56" value="" style="shape=partialRectangle;connectable=0;fillColor=none;top=0;left=0;bottom=0;right=0;editable=1;overflow=hidden;html=1;whiteSpace=wrap;" vertex="1" parent="cvSl1I-amtt9uq9q1OwC-55">
          <mxGeometry width="60" height="30" as="geometry">
            <mxRectangle width="60" height="30" as="alternateBounds" />
          </mxGeometry>
        </mxCell>
        <mxCell id="cvSl1I-amtt9uq9q1OwC-57" value="Название" style="shape=partialRectangle;connectable=0;fillColor=none;top=0;left=0;bottom=0;right=0;align=left;spacingLeft=6;overflow=hidden;html=1;whiteSpace=wrap;" vertex="1" parent="cvSl1I-amtt9uq9q1OwC-55">
          <mxGeometry x="60" width="120" height="30" as="geometry">
            <mxRectangle width="120" height="30" as="alternateBounds" />
          </mxGeometry>
        </mxCell>
        <mxCell id="cvSl1I-amtt9uq9q1OwC-61" value="Состав" style="shape=table;startSize=30;container=1;collapsible=1;childLayout=tableLayout;fixedRows=1;rowLines=0;fontStyle=1;align=center;resizeLast=1;html=1;whiteSpace=wrap;" vertex="1" parent="1">
          <mxGeometry x="600" y="720" width="180" height="120" as="geometry" />
        </mxCell>
        <mxCell id="cvSl1I-amtt9uq9q1OwC-62" value="" style="shape=tableRow;horizontal=0;startSize=0;swimlaneHead=0;swimlaneBody=0;fillColor=none;collapsible=0;dropTarget=0;points=[[0,0.5],[1,0.5]];portConstraint=eastwest;top=0;left=0;right=0;bottom=0;html=1;" vertex="1" parent="cvSl1I-amtt9uq9q1OwC-61">
          <mxGeometry y="30" width="180" height="30" as="geometry" />
        </mxCell>
        <mxCell id="cvSl1I-amtt9uq9q1OwC-63" value="PK" style="shape=partialRectangle;connectable=0;fillColor=none;top=0;left=0;bottom=0;right=0;fontStyle=1;overflow=hidden;html=1;whiteSpace=wrap;" vertex="1" parent="cvSl1I-amtt9uq9q1OwC-62">
          <mxGeometry width="60" height="30" as="geometry">
            <mxRectangle width="60" height="30" as="alternateBounds" />
          </mxGeometry>
        </mxCell>
        <mxCell id="cvSl1I-amtt9uq9q1OwC-64" value="ID_Состав" style="shape=partialRectangle;connectable=0;fillColor=none;top=0;left=0;bottom=0;right=0;align=left;spacingLeft=6;fontStyle=5;overflow=hidden;html=1;whiteSpace=wrap;" vertex="1" parent="cvSl1I-amtt9uq9q1OwC-62">
          <mxGeometry x="60" width="120" height="30" as="geometry">
            <mxRectangle width="120" height="30" as="alternateBounds" />
          </mxGeometry>
        </mxCell>
        <mxCell id="cvSl1I-amtt9uq9q1OwC-86" value="" style="shape=tableRow;horizontal=0;startSize=0;swimlaneHead=0;swimlaneBody=0;fillColor=none;collapsible=0;dropTarget=0;points=[[0,0.5],[1,0.5]];portConstraint=eastwest;top=0;left=0;right=0;bottom=1;" vertex="1" parent="cvSl1I-amtt9uq9q1OwC-61">
          <mxGeometry y="60" width="180" height="30" as="geometry" />
        </mxCell>
        <mxCell id="cvSl1I-amtt9uq9q1OwC-87" value="FK" style="shape=partialRectangle;connectable=0;fillColor=none;top=0;left=0;bottom=0;right=0;fontStyle=1;overflow=hidden;whiteSpace=wrap;html=1;" vertex="1" parent="cvSl1I-amtt9uq9q1OwC-86">
          <mxGeometry width="60" height="30" as="geometry">
            <mxRectangle width="60" height="30" as="alternateBounds" />
          </mxGeometry>
        </mxCell>
        <mxCell id="cvSl1I-amtt9uq9q1OwC-88" value="Блюдо_ID" style="shape=partialRectangle;connectable=0;fillColor=none;top=0;left=0;bottom=0;right=0;align=left;spacingLeft=6;fontStyle=5;overflow=hidden;whiteSpace=wrap;html=1;" vertex="1" parent="cvSl1I-amtt9uq9q1OwC-86">
          <mxGeometry x="60" width="120" height="30" as="geometry">
            <mxRectangle width="120" height="30" as="alternateBounds" />
          </mxGeometry>
        </mxCell>
        <mxCell id="cvSl1I-amtt9uq9q1OwC-65" value="" style="shape=tableRow;horizontal=0;startSize=0;swimlaneHead=0;swimlaneBody=0;fillColor=none;collapsible=0;dropTarget=0;points=[[0,0.5],[1,0.5]];portConstraint=eastwest;top=0;left=0;right=0;bottom=1;html=1;" vertex="1" parent="cvSl1I-amtt9uq9q1OwC-61">
          <mxGeometry y="90" width="180" height="30" as="geometry" />
        </mxCell>
        <mxCell id="cvSl1I-amtt9uq9q1OwC-66" value="FK" style="shape=partialRectangle;connectable=0;fillColor=none;top=0;left=0;bottom=0;right=0;fontStyle=1;overflow=hidden;html=1;whiteSpace=wrap;" vertex="1" parent="cvSl1I-amtt9uq9q1OwC-65">
          <mxGeometry width="60" height="30" as="geometry">
            <mxRectangle width="60" height="30" as="alternateBounds" />
          </mxGeometry>
        </mxCell>
        <mxCell id="cvSl1I-amtt9uq9q1OwC-67" value="Ингредиент_ID" style="shape=partialRectangle;connectable=0;fillColor=none;top=0;left=0;bottom=0;right=0;align=left;spacingLeft=6;fontStyle=5;overflow=hidden;html=1;whiteSpace=wrap;" vertex="1" parent="cvSl1I-amtt9uq9q1OwC-65">
          <mxGeometry x="60" width="120" height="30" as="geometry">
            <mxRectangle width="120" height="30" as="alternateBounds" />
          </mxGeometry>
        </mxCell>
        <mxCell id="cvSl1I-amtt9uq9q1OwC-96" value="" style="edgeStyle=entityRelationEdgeStyle;fontSize=12;html=1;endArrow=ERoneToMany;rounded=0;entryX=1;entryY=0.5;entryDx=0;entryDy=0;exitX=0;exitY=0.167;exitDx=0;exitDy=0;exitPerimeter=0;" edge="1" parent="1" source="cvSl1I-amtt9uq9q1OwC-61" target="cvSl1I-amtt9uq9q1OwC-32">
          <mxGeometry width="100" height="100" relative="1" as="geometry">
            <mxPoint x="450" y="780" as="sourcePoint" />
            <mxPoint x="550" y="680" as="targetPoint" />
          </mxGeometry>
        </mxCell>
        <mxCell id="cvSl1I-amtt9uq9q1OwC-97" value="" style="edgeStyle=entityRelationEdgeStyle;fontSize=12;html=1;endArrow=ERmandOne;startArrow=ERmandOne;rounded=0;entryX=0;entryY=0.5;entryDx=0;entryDy=0;" edge="1" parent="1" source="cvSl1I-amtt9uq9q1OwC-55" target="cvSl1I-amtt9uq9q1OwC-65">
          <mxGeometry width="100" height="100" relative="1" as="geometry">
            <mxPoint x="322" y="834" as="sourcePoint" />
            <mxPoint x="420" y="830" as="targetPoint" />
            <Array as="points">
              <mxPoint x="410" y="910" />
              <mxPoint x="400" y="900" />
              <mxPoint x="400" y="910" />
              <mxPoint x="400" y="850" />
            </Array>
          </mxGeometry>
        </mxCell>
        <mxCell id="cvSl1I-amtt9uq9q1OwC-98" value="" style="edgeStyle=entityRelationEdgeStyle;fontSize=12;html=1;endArrow=ERoneToMany;rounded=0;" edge="1" parent="1" source="cvSl1I-amtt9uq9q1OwC-48">
          <mxGeometry width="100" height="100" relative="1" as="geometry">
            <mxPoint x="220" y="720" as="sourcePoint" />
            <mxPoint x="320" y="620" as="targetPoint" />
          </mxGeometry>
        </mxCell>
      </root>
    </mxGraphModel>
  </diagram>
  <diagram id="5qfH4NfPUVUL-RgoK6Ry" name="Классов">
    <mxGraphModel dx="1629" dy="-2589" grid="1" gridSize="10" guides="1" tooltips="1" connect="1" arrows="1" fold="1" page="1" pageScale="1" pageWidth="827" pageHeight="1169" math="0" shadow="0">
      <root>
        <mxCell id="0" />
        <mxCell id="1" parent="0" />
        <mxCell id="0OOdkDXUTVurp3OhBiDq-1" value="&lt;p style=&quot;margin:0px;margin-top:4px;text-align:center;&quot;&gt;&lt;b&gt;Ингредиент&lt;/b&gt;&lt;/p&gt;&lt;hr size=&quot;1&quot;&gt;&lt;p style=&quot;margin:0px;margin-left:4px;&quot;&gt;Название: string&lt;/p&gt;&lt;p style=&quot;margin:0px;margin-left:4px;&quot;&gt;Калории: float&lt;br&gt;Белки: float&lt;br&gt;Углеводы: float&lt;br&gt;Жиры: float&lt;/p&gt;&lt;p style=&quot;margin:0px;margin-left:4px;&quot;&gt;&lt;br&gt;&lt;/p&gt;" style="verticalAlign=top;align=left;overflow=fill;fontSize=12;fontFamily=Helvetica;html=1;" vertex="1" parent="1">
          <mxGeometry x="-808" y="3920" width="250" height="107" as="geometry" />
        </mxCell>
        <mxCell id="0OOdkDXUTVurp3OhBiDq-3" value="&lt;p style=&quot;margin:0px;margin-top:4px;text-align:center;&quot;&gt;&lt;b&gt;Блюдо&lt;/b&gt;&lt;/p&gt;&lt;hr size=&quot;1&quot;&gt;&lt;p style=&quot;margin:0px;margin-left:4px;&quot;&gt;&lt;span style=&quot;background-color: initial;&quot;&gt;Название: string&lt;/span&gt;&lt;br&gt;&lt;/p&gt;&lt;p style=&quot;margin:0px;margin-left:4px;&quot;&gt;Ингредиенты: List&amp;nbsp;&lt;/p&gt;&lt;p style=&quot;margin:0px;margin-left:4px;&quot;&gt;&lt;br&gt;&lt;/p&gt;" style="verticalAlign=top;align=left;overflow=fill;fontSize=12;fontFamily=Helvetica;html=1;" vertex="1" parent="1">
          <mxGeometry x="-808" y="3640" width="250" height="70" as="geometry" />
        </mxCell>
        <mxCell id="0OOdkDXUTVurp3OhBiDq-7" value="&lt;p style=&quot;margin:0px;margin-top:4px;text-align:center;&quot;&gt;&lt;i&gt;&amp;lt;&amp;lt;Interface&amp;gt;&amp;gt;&lt;/i&gt;&lt;br&gt;&lt;b&gt;Рассчет&lt;/b&gt;&lt;/p&gt;&lt;hr size=&quot;1&quot; style=&quot;border-style:solid;&quot;&gt;&lt;p style=&quot;margin:0px;margin-left:4px;&quot;&gt;&lt;/p&gt;&lt;p style=&quot;margin:0px;margin-left:4px;&quot;&gt;Вычислить калории()&lt;/p&gt;" style="verticalAlign=top;align=left;overflow=fill;html=1;whiteSpace=wrap;" vertex="1" parent="1">
          <mxGeometry x="-208" y="3938.5" width="190" height="70" as="geometry" />
        </mxCell>
        <mxCell id="0OOdkDXUTVurp3OhBiDq-8" value="&lt;p style=&quot;margin:0px;margin-top:4px;text-align:center;&quot;&gt;&lt;i&gt;&amp;lt;&amp;lt;Interface&amp;gt;&amp;gt;&lt;/i&gt;&lt;br&gt;&lt;b&gt;Очиститель&lt;/b&gt;&lt;/p&gt;&lt;hr size=&quot;1&quot; style=&quot;border-style:solid;&quot;&gt;&lt;p style=&quot;margin:0px;margin-left:4px;&quot;&gt;&lt;/p&gt;&lt;p style=&quot;margin:0px;margin-left:4px;&quot;&gt;Очистить все()&lt;/p&gt;" style="verticalAlign=top;align=left;overflow=fill;html=1;whiteSpace=wrap;" vertex="1" parent="1">
          <mxGeometry x="-208" y="3790" width="190" height="70" as="geometry" />
        </mxCell>
        <mxCell id="0OOdkDXUTVurp3OhBiDq-9" value="&lt;p style=&quot;margin:0px;margin-top:4px;text-align:center;&quot;&gt;&lt;i&gt;&amp;lt;&amp;lt;Interface&amp;gt;&amp;gt;&lt;/i&gt;&lt;br&gt;&lt;b&gt;Загрузчик&lt;/b&gt;&lt;/p&gt;&lt;hr size=&quot;1&quot; style=&quot;border-style:solid;&quot;&gt;&lt;p style=&quot;margin:0px;margin-left:4px;&quot;&gt;&lt;/p&gt;&lt;p style=&quot;margin:0px;margin-left:4px;&quot;&gt;Загрузить ингредиенты()&lt;/p&gt;" style="verticalAlign=top;align=left;overflow=fill;html=1;whiteSpace=wrap;" vertex="1" parent="1">
          <mxGeometry x="-208" y="3640" width="190" height="70" as="geometry" />
        </mxCell>
        <mxCell id="0OOdkDXUTVurp3OhBiDq-10" value="" style="endArrow=block;startArrow=none;endFill=0;startFill=0;endSize=8;html=1;verticalAlign=bottom;dashed=1;labelBackgroundColor=none;rounded=0;exitX=0.994;exitY=0.093;exitDx=0;exitDy=0;exitPerimeter=0;entryX=0.002;entryY=0.362;entryDx=0;entryDy=0;entryPerimeter=0;" edge="1" parent="1" target="0OOdkDXUTVurp3OhBiDq-9">
          <mxGeometry width="160" relative="1" as="geometry">
            <mxPoint x="-299.1399999999999" y="3665.1099999999997" as="sourcePoint" />
            <mxPoint x="-208" y="3651" as="targetPoint" />
          </mxGeometry>
        </mxCell>
        <mxCell id="0OOdkDXUTVurp3OhBiDq-11" value="" style="endArrow=block;startArrow=none;endFill=0;startFill=0;endSize=8;html=1;verticalAlign=bottom;dashed=1;labelBackgroundColor=none;rounded=0;exitX=0.994;exitY=0.093;exitDx=0;exitDy=0;exitPerimeter=0;" edge="1" parent="1">
          <mxGeometry width="160" relative="1" as="geometry">
            <mxPoint x="-298" y="3810" as="sourcePoint" />
            <mxPoint x="-207" y="3810" as="targetPoint" />
          </mxGeometry>
        </mxCell>
        <mxCell id="0OOdkDXUTVurp3OhBiDq-12" value="" style="endArrow=block;startArrow=none;endFill=0;startFill=0;endSize=8;html=1;verticalAlign=bottom;dashed=1;labelBackgroundColor=none;rounded=0;exitX=0.994;exitY=0.093;exitDx=0;exitDy=0;exitPerimeter=0;" edge="1" parent="1">
          <mxGeometry width="160" relative="1" as="geometry">
            <mxPoint x="-299" y="3958.5" as="sourcePoint" />
            <mxPoint x="-208" y="3958.5" as="targetPoint" />
          </mxGeometry>
        </mxCell>
        <mxCell id="0OOdkDXUTVurp3OhBiDq-18" value="&lt;p style=&quot;margin:0px;margin-top:4px;text-align:center;&quot;&gt;&lt;b&gt;Пользователь&lt;/b&gt;&lt;/p&gt;&lt;hr size=&quot;1&quot; style=&quot;border-style:solid;&quot;&gt;&lt;p style=&quot;margin:0px;margin-left:4px;&quot;&gt;Название блюда: string&lt;/p&gt;&lt;p style=&quot;margin:0px;margin-left:4px;&quot;&gt;Ингредиенты: List&lt;/p&gt;&lt;p style=&quot;margin:0px;margin-left:4px;&quot;&gt;&lt;br&gt;&lt;/p&gt;&lt;p style=&quot;margin:0px;margin-left:4px;&quot;&gt;&lt;br&gt;&lt;/p&gt;&lt;p style=&quot;margin:0px;margin-left:4px;&quot;&gt;&lt;br&gt;&lt;/p&gt;&lt;p style=&quot;margin:0px;margin-left:4px;&quot;&gt;&lt;br&gt;&lt;/p&gt;&lt;p style=&quot;margin:0px;margin-left:4px;&quot;&gt;&lt;br&gt;&lt;/p&gt;&lt;p style=&quot;margin:0px;margin-left:4px;&quot;&gt;&lt;br&gt;&lt;/p&gt;&lt;p style=&quot;margin:0px;margin-left:4px;&quot;&gt;&lt;br&gt;&lt;/p&gt;&lt;p style=&quot;margin:0px;margin-left:4px;&quot;&gt;&lt;br&gt;&lt;/p&gt;&lt;p style=&quot;margin:0px;margin-left:4px;&quot;&gt;&lt;br&gt;&lt;/p&gt;&lt;hr size=&quot;1&quot; style=&quot;border-style:solid;&quot;&gt;&lt;p style=&quot;margin:0px;margin-left:4px;&quot;&gt;Добавить ингредиенты()&lt;/p&gt;&lt;p style=&quot;margin:0px;margin-left:4px;&quot;&gt;Выбрать ингредиенты()&lt;/p&gt;&lt;p style=&quot;margin:0px;margin-left:4px;&quot;&gt;Ввести имя блюда()&lt;/p&gt;&lt;p style=&quot;margin:0px;margin-left:4px;&quot;&gt;Запуск рассчета()&lt;/p&gt;&lt;p style=&quot;margin:0px;margin-left:4px;&quot;&gt;&lt;br&gt;&lt;/p&gt;" style="verticalAlign=top;align=left;overflow=fill;html=1;whiteSpace=wrap;" vertex="1" parent="1">
          <mxGeometry x="-488" y="3640" width="190" height="400" as="geometry" />
        </mxCell>
        <mxCell id="0OOdkDXUTVurp3OhBiDq-19" value="&lt;p style=&quot;margin:0px;margin-top:4px;text-align:center;&quot;&gt;&lt;b&gt;Программа&lt;/b&gt;&lt;/p&gt;&lt;hr size=&quot;1&quot;&gt;&lt;p style=&quot;margin:0px;margin-left:4px;&quot;&gt;&lt;span style=&quot;background-color: initial;&quot;&gt;пользователь: Пользователь&lt;/span&gt;&lt;br&gt;&lt;/p&gt;&lt;p style=&quot;margin:0px;margin-left:4px;&quot;&gt;&lt;span style=&quot;background-color: initial;&quot;&gt;блюдо: Блюдо&lt;/span&gt;&lt;/p&gt;&lt;hr size=&quot;1&quot;&gt;&lt;p style=&quot;margin:0px;margin-left:4px;&quot;&gt;Запуск()&lt;/p&gt;&lt;p style=&quot;margin:0px;margin-left:4px;&quot;&gt;Закрыть()&lt;/p&gt;" style="verticalAlign=top;align=left;overflow=fill;fontSize=12;fontFamily=Helvetica;html=1;" vertex="1" parent="1">
          <mxGeometry x="-748" y="3770" width="190" height="110" as="geometry" />
        </mxCell>
        <mxCell id="0OOdkDXUTVurp3OhBiDq-21" value="" style="endArrow=none;html=1;edgeStyle=orthogonalEdgeStyle;rounded=0;entryX=0.5;entryY=0;entryDx=0;entryDy=0;" edge="1" parent="1">
          <mxGeometry relative="1" as="geometry">
            <mxPoint x="-653" y="3880" as="sourcePoint" />
            <mxPoint x="-653.21" y="3920" as="targetPoint" />
          </mxGeometry>
        </mxCell>
        <mxCell id="0OOdkDXUTVurp3OhBiDq-23" value="" style="endArrow=none;html=1;edgeStyle=orthogonalEdgeStyle;rounded=0;exitX=0.5;exitY=1;exitDx=0;exitDy=0;entryX=0.5;entryY=0;entryDx=0;entryDy=0;" edge="1" parent="1" target="0OOdkDXUTVurp3OhBiDq-19">
          <mxGeometry relative="1" as="geometry">
            <mxPoint x="-653.12" y="3710" as="sourcePoint" />
            <mxPoint x="-653.12" y="3760" as="targetPoint" />
          </mxGeometry>
        </mxCell>
        <mxCell id="0OOdkDXUTVurp3OhBiDq-24" value="" style="endArrow=none;html=1;edgeStyle=orthogonalEdgeStyle;rounded=0;exitX=0.08;exitY=1;exitDx=0;exitDy=0;entryX=0.5;entryY=0;entryDx=0;entryDy=0;exitPerimeter=0;" edge="1" parent="1" source="0OOdkDXUTVurp3OhBiDq-3">
          <mxGeometry relative="1" as="geometry">
            <mxPoint x="-788" y="3870" as="sourcePoint" />
            <mxPoint x="-788" y="3920" as="targetPoint" />
          </mxGeometry>
        </mxCell>
        <mxCell id="0OOdkDXUTVurp3OhBiDq-26" value="" style="endArrow=none;html=1;edgeStyle=orthogonalEdgeStyle;rounded=0;entryX=0.011;entryY=0.049;entryDx=0;entryDy=0;entryPerimeter=0;" edge="1" parent="1" target="0OOdkDXUTVurp3OhBiDq-18">
          <mxGeometry relative="1" as="geometry">
            <mxPoint x="-558" y="3660" as="sourcePoint" />
            <mxPoint x="-398" y="3660" as="targetPoint" />
          </mxGeometry>
        </mxCell>
        <mxCell id="0OOdkDXUTVurp3OhBiDq-29" value="" style="endArrow=none;html=1;edgeStyle=orthogonalEdgeStyle;rounded=0;entryX=0.011;entryY=0.049;entryDx=0;entryDy=0;entryPerimeter=0;" edge="1" parent="1">
          <mxGeometry relative="1" as="geometry">
            <mxPoint x="-558" y="3790" as="sourcePoint" />
            <mxPoint x="-486" y="3790" as="targetPoint" />
          </mxGeometry>
        </mxCell>
      </root>
    </mxGraphModel>
  </diagram>
  <diagram id="piZvmW0iVOgnqLJwGpKN" name="Деятельности">
    <mxGraphModel dx="1603" dy="1837" grid="1" gridSize="10" guides="1" tooltips="1" connect="1" arrows="1" fold="1" page="1" pageScale="1" pageWidth="827" pageHeight="1169" math="0" shadow="0">
      <root>
        <mxCell id="0" />
        <mxCell id="1" parent="0" />
        <mxCell id="32AIoHTuThhJDFPePCJz-6" style="edgeStyle=orthogonalEdgeStyle;rounded=0;orthogonalLoop=1;jettySize=auto;html=1;" edge="1" parent="1" source="32AIoHTuThhJDFPePCJz-1">
          <mxGeometry relative="1" as="geometry">
            <mxPoint x="160" y="180" as="targetPoint" />
          </mxGeometry>
        </mxCell>
        <mxCell id="32AIoHTuThhJDFPePCJz-1" value="Открытие приложения" style="html=1;align=center;verticalAlign=top;rounded=1;absoluteArcSize=1;arcSize=10;dashed=0;whiteSpace=wrap;" vertex="1" parent="1">
          <mxGeometry x="90" y="100" width="140" height="40" as="geometry" />
        </mxCell>
        <mxCell id="32AIoHTuThhJDFPePCJz-23" style="rounded=0;orthogonalLoop=1;jettySize=auto;html=1;entryX=0.5;entryY=0;entryDx=0;entryDy=0;" edge="1" parent="1" source="32AIoHTuThhJDFPePCJz-2">
          <mxGeometry relative="1" as="geometry">
            <mxPoint x="264.94000000000005" y="230" as="targetPoint" />
          </mxGeometry>
        </mxCell>
        <mxCell id="32AIoHTuThhJDFPePCJz-56" style="edgeStyle=none;rounded=0;orthogonalLoop=1;jettySize=auto;html=1;entryX=0.5;entryY=0;entryDx=0;entryDy=0;exitX=0;exitY=0.5;exitDx=0;exitDy=0;" edge="1" parent="1" source="32AIoHTuThhJDFPePCJz-2" target="32AIoHTuThhJDFPePCJz-37">
          <mxGeometry relative="1" as="geometry" />
        </mxCell>
        <mxCell id="32AIoHTuThhJDFPePCJz-2" value="" style="rhombus;" vertex="1" parent="1">
          <mxGeometry x="145" y="180" width="30" height="30" as="geometry" />
        </mxCell>
        <mxCell id="32AIoHTuThhJDFPePCJz-8" value="[Не открылось]" style="text;html=1;align=center;verticalAlign=middle;resizable=0;points=[];autosize=1;strokeColor=none;fillColor=none;" vertex="1" parent="1">
          <mxGeometry x="35" y="168" width="110" height="30" as="geometry" />
        </mxCell>
        <mxCell id="32AIoHTuThhJDFPePCJz-10" value="[Открылось]" style="text;html=1;align=center;verticalAlign=middle;resizable=0;points=[];autosize=1;strokeColor=none;fillColor=none;" vertex="1" parent="1">
          <mxGeometry x="180" y="168" width="90" height="30" as="geometry" />
        </mxCell>
        <mxCell id="32AIoHTuThhJDFPePCJz-12" style="edgeStyle=orthogonalEdgeStyle;rounded=0;orthogonalLoop=1;jettySize=auto;html=1;entryX=0.5;entryY=0;entryDx=0;entryDy=0;" edge="1" parent="1" source="32AIoHTuThhJDFPePCJz-11" target="32AIoHTuThhJDFPePCJz-1">
          <mxGeometry relative="1" as="geometry" />
        </mxCell>
        <mxCell id="32AIoHTuThhJDFPePCJz-11" value="" style="ellipse;fillColor=strokeColor;html=1;" vertex="1" parent="1">
          <mxGeometry x="145" y="30" width="30" height="30" as="geometry" />
        </mxCell>
        <mxCell id="32AIoHTuThhJDFPePCJz-13" value="Добавление ингредиентов" style="html=1;align=center;verticalAlign=top;rounded=1;absoluteArcSize=1;arcSize=10;dashed=0;whiteSpace=wrap;" vertex="1" parent="1">
          <mxGeometry x="195.06" y="230" width="140" height="40" as="geometry" />
        </mxCell>
        <mxCell id="32AIoHTuThhJDFPePCJz-17" style="edgeStyle=orthogonalEdgeStyle;rounded=0;orthogonalLoop=1;jettySize=auto;html=1;entryX=0;entryY=0.5;entryDx=0;entryDy=0;exitX=0;exitY=0.5;exitDx=0;exitDy=0;" edge="1" parent="1" source="32AIoHTuThhJDFPePCJz-15" target="32AIoHTuThhJDFPePCJz-13">
          <mxGeometry relative="1" as="geometry">
            <Array as="points">
              <mxPoint x="145.06" y="325" />
              <mxPoint x="145.06" y="250" />
            </Array>
          </mxGeometry>
        </mxCell>
        <mxCell id="32AIoHTuThhJDFPePCJz-50" style="edgeStyle=none;rounded=0;orthogonalLoop=1;jettySize=auto;html=1;entryX=-0.094;entryY=0.483;entryDx=0;entryDy=0;entryPerimeter=0;" edge="1" parent="1" source="32AIoHTuThhJDFPePCJz-15" target="32AIoHTuThhJDFPePCJz-44">
          <mxGeometry relative="1" as="geometry">
            <mxPoint x="360.0000000000001" y="360.0000000000001" as="targetPoint" />
          </mxGeometry>
        </mxCell>
        <mxCell id="32AIoHTuThhJDFPePCJz-15" value="" style="rhombus;" vertex="1" parent="1">
          <mxGeometry x="250.06" y="310" width="30" height="30" as="geometry" />
        </mxCell>
        <mxCell id="32AIoHTuThhJDFPePCJz-16" value="" style="edgeStyle=orthogonalEdgeStyle;rounded=0;orthogonalLoop=1;jettySize=auto;html=1;" edge="1" parent="1" source="32AIoHTuThhJDFPePCJz-13" target="32AIoHTuThhJDFPePCJz-15">
          <mxGeometry relative="1" as="geometry" />
        </mxCell>
        <mxCell id="32AIoHTuThhJDFPePCJz-18" value="[Не добавились]" style="text;html=1;align=center;verticalAlign=middle;resizable=0;points=[];autosize=1;strokeColor=none;fillColor=none;" vertex="1" parent="1">
          <mxGeometry x="150.06" y="298" width="110" height="30" as="geometry" />
        </mxCell>
        <mxCell id="32AIoHTuThhJDFPePCJz-19" value="[Добавились]" style="text;html=1;align=center;verticalAlign=middle;resizable=0;points=[];autosize=1;strokeColor=none;fillColor=none;" vertex="1" parent="1">
          <mxGeometry x="295.06" y="298" width="100" height="30" as="geometry" />
        </mxCell>
        <mxCell id="32AIoHTuThhJDFPePCJz-25" value="Выбор ингредиентов" style="html=1;align=center;verticalAlign=top;rounded=1;absoluteArcSize=1;arcSize=10;dashed=0;whiteSpace=wrap;" vertex="1" parent="1">
          <mxGeometry x="430" y="450" width="140" height="40" as="geometry" />
        </mxCell>
        <mxCell id="32AIoHTuThhJDFPePCJz-29" value="Рассчет калорий" style="html=1;align=center;verticalAlign=top;rounded=1;absoluteArcSize=1;arcSize=10;dashed=0;whiteSpace=wrap;" vertex="1" parent="1">
          <mxGeometry x="307.56" y="585" width="140" height="40" as="geometry" />
        </mxCell>
        <mxCell id="32AIoHTuThhJDFPePCJz-31" value="Отображение результата" style="html=1;align=center;verticalAlign=top;rounded=1;absoluteArcSize=1;arcSize=10;dashed=0;whiteSpace=wrap;" vertex="1" parent="1">
          <mxGeometry x="307.56" y="655" width="140" height="40" as="geometry" />
        </mxCell>
        <mxCell id="32AIoHTuThhJDFPePCJz-32" value="" style="edgeStyle=orthogonalEdgeStyle;rounded=0;orthogonalLoop=1;jettySize=auto;html=1;" edge="1" parent="1" source="32AIoHTuThhJDFPePCJz-29" target="32AIoHTuThhJDFPePCJz-31">
          <mxGeometry relative="1" as="geometry" />
        </mxCell>
        <mxCell id="32AIoHTuThhJDFPePCJz-38" style="rounded=0;orthogonalLoop=1;jettySize=auto;html=1;exitX=0;exitY=0.5;exitDx=0;exitDy=0;" edge="1" parent="1" source="32AIoHTuThhJDFPePCJz-33" target="32AIoHTuThhJDFPePCJz-37">
          <mxGeometry relative="1" as="geometry">
            <mxPoint x="357.56" y="765" as="sourcePoint" />
          </mxGeometry>
        </mxCell>
        <mxCell id="32AIoHTuThhJDFPePCJz-40" style="rounded=0;orthogonalLoop=1;jettySize=auto;html=1;entryX=0.5;entryY=0;entryDx=0;entryDy=0;exitX=1;exitY=0.5;exitDx=0;exitDy=0;" edge="1" parent="1" source="32AIoHTuThhJDFPePCJz-33" target="32AIoHTuThhJDFPePCJz-39">
          <mxGeometry relative="1" as="geometry">
            <mxPoint x="397.56" y="765" as="sourcePoint" />
          </mxGeometry>
        </mxCell>
        <mxCell id="32AIoHTuThhJDFPePCJz-33" value="" style="rhombus;" vertex="1" parent="1">
          <mxGeometry x="360.06" y="743" width="35" height="30" as="geometry" />
        </mxCell>
        <mxCell id="32AIoHTuThhJDFPePCJz-34" value="" style="edgeStyle=orthogonalEdgeStyle;rounded=0;orthogonalLoop=1;jettySize=auto;html=1;" edge="1" parent="1" source="32AIoHTuThhJDFPePCJz-31" target="32AIoHTuThhJDFPePCJz-33">
          <mxGeometry relative="1" as="geometry" />
        </mxCell>
        <mxCell id="32AIoHTuThhJDFPePCJz-35" value="[Продолжить рассчет калорий]" style="text;html=1;align=center;verticalAlign=middle;resizable=0;points=[];autosize=1;strokeColor=none;fillColor=none;" vertex="1" parent="1">
          <mxGeometry x="387.56" y="725" width="190" height="30" as="geometry" />
        </mxCell>
        <mxCell id="32AIoHTuThhJDFPePCJz-36" value="[Не продолжать рассчет калорий]" style="text;html=1;align=center;verticalAlign=middle;resizable=0;points=[];autosize=1;strokeColor=none;fillColor=none;" vertex="1" parent="1">
          <mxGeometry x="150.06" y="725" width="210" height="30" as="geometry" />
        </mxCell>
        <mxCell id="32AIoHTuThhJDFPePCJz-37" value="" style="ellipse;html=1;shape=endState;fillColor=strokeColor;" vertex="1" parent="1">
          <mxGeometry x="35" y="840" width="30" height="30" as="geometry" />
        </mxCell>
        <mxCell id="32AIoHTuThhJDFPePCJz-39" value="Очистить все" style="html=1;align=center;verticalAlign=top;rounded=1;absoluteArcSize=1;arcSize=10;dashed=0;whiteSpace=wrap;" vertex="1" parent="1">
          <mxGeometry x="450" y="805" width="140" height="40" as="geometry" />
        </mxCell>
        <mxCell id="32AIoHTuThhJDFPePCJz-47" style="rounded=0;orthogonalLoop=1;jettySize=auto;html=1;" edge="1" parent="1" source="32AIoHTuThhJDFPePCJz-41">
          <mxGeometry relative="1" as="geometry">
            <mxPoint x="380.0000000000001" y="530.0000000000001" as="targetPoint" />
          </mxGeometry>
        </mxCell>
        <mxCell id="32AIoHTuThhJDFPePCJz-41" value="Ввод названия блюда" style="html=1;align=center;verticalAlign=top;rounded=1;absoluteArcSize=1;arcSize=10;dashed=0;whiteSpace=wrap;" vertex="1" parent="1">
          <mxGeometry x="165" y="450" width="140" height="40" as="geometry" />
        </mxCell>
        <mxCell id="32AIoHTuThhJDFPePCJz-51" style="edgeStyle=none;rounded=0;orthogonalLoop=1;jettySize=auto;html=1;entryX=0.5;entryY=0;entryDx=0;entryDy=0;" edge="1" parent="1" source="32AIoHTuThhJDFPePCJz-43" target="32AIoHTuThhJDFPePCJz-29">
          <mxGeometry relative="1" as="geometry" />
        </mxCell>
        <mxCell id="32AIoHTuThhJDFPePCJz-43" value="" style="html=1;points=[];perimeter=orthogonalPerimeter;fillColor=strokeColor;direction=south;" vertex="1" parent="1">
          <mxGeometry x="335.06" y="530" width="80" height="5" as="geometry" />
        </mxCell>
        <mxCell id="32AIoHTuThhJDFPePCJz-48" style="edgeStyle=none;rounded=0;orthogonalLoop=1;jettySize=auto;html=1;entryX=0.5;entryY=0;entryDx=0;entryDy=0;" edge="1" parent="1" source="32AIoHTuThhJDFPePCJz-44" target="32AIoHTuThhJDFPePCJz-41">
          <mxGeometry relative="1" as="geometry">
            <mxPoint x="240" y="430.0000000000001" as="targetPoint" />
          </mxGeometry>
        </mxCell>
        <mxCell id="32AIoHTuThhJDFPePCJz-49" style="edgeStyle=none;rounded=0;orthogonalLoop=1;jettySize=auto;html=1;entryX=0.5;entryY=0;entryDx=0;entryDy=0;" edge="1" parent="1" source="32AIoHTuThhJDFPePCJz-44" target="32AIoHTuThhJDFPePCJz-25">
          <mxGeometry relative="1" as="geometry">
            <mxPoint x="490.0000000000001" y="440.0000000000001" as="targetPoint" />
          </mxGeometry>
        </mxCell>
        <mxCell id="32AIoHTuThhJDFPePCJz-44" value="" style="html=1;points=[];perimeter=orthogonalPerimeter;fillColor=strokeColor;direction=south;" vertex="1" parent="1">
          <mxGeometry x="320.06" y="370" width="80" height="5" as="geometry" />
        </mxCell>
        <mxCell id="32AIoHTuThhJDFPePCJz-46" style="rounded=0;orthogonalLoop=1;jettySize=auto;html=1;entryX=0.005;entryY=0.424;entryDx=0;entryDy=0;entryPerimeter=0;" edge="1" parent="1" source="32AIoHTuThhJDFPePCJz-25" target="32AIoHTuThhJDFPePCJz-43">
          <mxGeometry relative="1" as="geometry" />
        </mxCell>
        <mxCell id="32AIoHTuThhJDFPePCJz-53" style="edgeStyle=orthogonalEdgeStyle;rounded=0;orthogonalLoop=1;jettySize=auto;html=1;entryX=0.314;entryY=-0.022;entryDx=0;entryDy=0;entryPerimeter=0;exitX=1.003;exitY=0.617;exitDx=0;exitDy=0;exitPerimeter=0;" edge="1" parent="1" source="32AIoHTuThhJDFPePCJz-39">
          <mxGeometry relative="1" as="geometry">
            <mxPoint x="603.06" y="805.0023456790124" as="sourcePoint" />
            <mxPoint x="399.82000000000005" y="371.56999999999994" as="targetPoint" />
            <Array as="points">
              <mxPoint x="633" y="830" />
              <mxPoint x="633" y="330" />
              <mxPoint x="413" y="330" />
              <mxPoint x="413" y="372" />
            </Array>
          </mxGeometry>
        </mxCell>
      </root>
    </mxGraphModel>
  </diagram>
  <diagram id="aUijWiiQ3q1CVqrwilb3" name="Дея-ти. Валидация">
    <mxGraphModel dx="566" dy="648" grid="1" gridSize="10" guides="1" tooltips="1" connect="1" arrows="1" fold="1" page="1" pageScale="1" pageWidth="827" pageHeight="1169" math="0" shadow="0">
      <root>
        <mxCell id="0" />
        <mxCell id="1" parent="0" />
        <mxCell id="7QcKzcswOJJCugYxThSB-17" style="edgeStyle=none;rounded=0;orthogonalLoop=1;jettySize=auto;html=1;" edge="1" parent="1" source="7QcKzcswOJJCugYxThSB-1" target="7QcKzcswOJJCugYxThSB-12">
          <mxGeometry relative="1" as="geometry" />
        </mxCell>
        <mxCell id="7QcKzcswOJJCugYxThSB-1" value="Ввод названия блюда" style="html=1;align=center;verticalAlign=top;rounded=1;absoluteArcSize=1;arcSize=10;dashed=0;whiteSpace=wrap;" vertex="1" parent="1">
          <mxGeometry x="274" y="350" width="140" height="40" as="geometry" />
        </mxCell>
        <mxCell id="7QcKzcswOJJCugYxThSB-2" value="Ввод ингредиентов" style="html=1;align=center;verticalAlign=top;rounded=1;absoluteArcSize=1;arcSize=10;dashed=0;whiteSpace=wrap;" vertex="1" parent="1">
          <mxGeometry x="150" y="150" width="140" height="40" as="geometry" />
        </mxCell>
        <mxCell id="7QcKzcswOJJCugYxThSB-9" style="edgeStyle=none;rounded=0;orthogonalLoop=1;jettySize=auto;html=1;entryX=0.5;entryY=0;entryDx=0;entryDy=0;" edge="1" parent="1" source="7QcKzcswOJJCugYxThSB-3" target="7QcKzcswOJJCugYxThSB-8">
          <mxGeometry relative="1" as="geometry" />
        </mxCell>
        <mxCell id="7QcKzcswOJJCugYxThSB-3" value="" style="rhombus;" vertex="1" parent="1">
          <mxGeometry x="205" y="270" width="30" height="30" as="geometry" />
        </mxCell>
        <mxCell id="7QcKzcswOJJCugYxThSB-4" value="" style="edgeStyle=none;rounded=0;orthogonalLoop=1;jettySize=auto;html=1;" edge="1" parent="1" source="7QcKzcswOJJCugYxThSB-2" target="7QcKzcswOJJCugYxThSB-3">
          <mxGeometry relative="1" as="geometry" />
        </mxCell>
        <mxCell id="7QcKzcswOJJCugYxThSB-5" value="[Отображается&amp;nbsp;&lt;div&gt;при добавлении]&lt;/div&gt;" style="text;html=1;align=center;verticalAlign=middle;resizable=0;points=[];autosize=1;strokeColor=none;fillColor=none;" vertex="1" parent="1">
          <mxGeometry x="270" y="240" width="120" height="40" as="geometry" />
        </mxCell>
        <mxCell id="7QcKzcswOJJCugYxThSB-7" value="[Не отображается&amp;nbsp;&lt;div&gt;при добавлении]&lt;/div&gt;" style="text;html=1;align=center;verticalAlign=middle;resizable=0;points=[];autosize=1;strokeColor=none;fillColor=none;" vertex="1" parent="1">
          <mxGeometry x="60" y="240" width="130" height="40" as="geometry" />
        </mxCell>
        <mxCell id="7QcKzcswOJJCugYxThSB-10" style="edgeStyle=orthogonalEdgeStyle;rounded=0;orthogonalLoop=1;jettySize=auto;html=1;entryX=0;entryY=0.5;entryDx=0;entryDy=0;exitX=0;exitY=0.5;exitDx=0;exitDy=0;" edge="1" parent="1" source="7QcKzcswOJJCugYxThSB-8" target="7QcKzcswOJJCugYxThSB-2">
          <mxGeometry relative="1" as="geometry" />
        </mxCell>
        <mxCell id="7QcKzcswOJJCugYxThSB-8" value="Некорректный ввод данных" style="html=1;align=center;verticalAlign=top;rounded=1;absoluteArcSize=1;arcSize=10;dashed=0;whiteSpace=wrap;" vertex="1" parent="1">
          <mxGeometry x="40" y="350" width="140" height="40" as="geometry" />
        </mxCell>
        <mxCell id="7QcKzcswOJJCugYxThSB-11" style="edgeStyle=none;rounded=0;orthogonalLoop=1;jettySize=auto;html=1;entryX=0.455;entryY=-0.067;entryDx=0;entryDy=0;entryPerimeter=0;" edge="1" parent="1" source="7QcKzcswOJJCugYxThSB-3" target="7QcKzcswOJJCugYxThSB-1">
          <mxGeometry relative="1" as="geometry" />
        </mxCell>
        <mxCell id="7QcKzcswOJJCugYxThSB-12" value="Выбор ингредиентов" style="html=1;align=center;verticalAlign=top;rounded=1;absoluteArcSize=1;arcSize=10;dashed=0;whiteSpace=wrap;" vertex="1" parent="1">
          <mxGeometry x="274" y="420" width="140" height="40" as="geometry" />
        </mxCell>
        <mxCell id="7QcKzcswOJJCugYxThSB-18" style="edgeStyle=orthogonalEdgeStyle;rounded=0;orthogonalLoop=1;jettySize=auto;html=1;entryX=0;entryY=0.5;entryDx=0;entryDy=0;" edge="1" parent="1" source="7QcKzcswOJJCugYxThSB-13" target="7QcKzcswOJJCugYxThSB-12">
          <mxGeometry relative="1" as="geometry">
            <Array as="points">
              <mxPoint x="190" y="515" />
              <mxPoint x="190" y="440" />
            </Array>
          </mxGeometry>
        </mxCell>
        <mxCell id="dZgzBzfw7MHjHtB-s-9Q-2" style="edgeStyle=none;rounded=0;orthogonalLoop=1;jettySize=auto;html=1;entryX=0.5;entryY=0;entryDx=0;entryDy=0;" edge="1" parent="1" source="7QcKzcswOJJCugYxThSB-13" target="dZgzBzfw7MHjHtB-s-9Q-1">
          <mxGeometry relative="1" as="geometry" />
        </mxCell>
        <mxCell id="7QcKzcswOJJCugYxThSB-13" value="" style="rhombus;" vertex="1" parent="1">
          <mxGeometry x="329" y="500" width="30" height="30" as="geometry" />
        </mxCell>
        <mxCell id="7QcKzcswOJJCugYxThSB-14" value="" style="edgeStyle=none;rounded=0;orthogonalLoop=1;jettySize=auto;html=1;" edge="1" parent="1" source="7QcKzcswOJJCugYxThSB-12" target="7QcKzcswOJJCugYxThSB-13">
          <mxGeometry relative="1" as="geometry" />
        </mxCell>
        <mxCell id="7QcKzcswOJJCugYxThSB-15" value="[Не отображаются]" style="text;html=1;align=center;verticalAlign=middle;resizable=0;points=[];autosize=1;strokeColor=none;fillColor=none;" vertex="1" parent="1">
          <mxGeometry x="195" y="478" width="130" height="30" as="geometry" />
        </mxCell>
        <mxCell id="7QcKzcswOJJCugYxThSB-16" value="[Отображаются]" style="text;html=1;align=center;verticalAlign=middle;resizable=0;points=[];autosize=1;strokeColor=none;fillColor=none;" vertex="1" parent="1">
          <mxGeometry x="380" y="478" width="110" height="30" as="geometry" />
        </mxCell>
        <mxCell id="7QcKzcswOJJCugYxThSB-19" value="" style="ellipse;html=1;shape=endState;fillColor=strokeColor;" vertex="1" parent="1">
          <mxGeometry x="435" y="705.5" width="30" height="30" as="geometry" />
        </mxCell>
        <mxCell id="7QcKzcswOJJCugYxThSB-24" style="edgeStyle=none;rounded=0;orthogonalLoop=1;jettySize=auto;html=1;entryX=0.5;entryY=0;entryDx=0;entryDy=0;" edge="1" parent="1" source="7QcKzcswOJJCugYxThSB-20" target="7QcKzcswOJJCugYxThSB-19">
          <mxGeometry relative="1" as="geometry" />
        </mxCell>
        <mxCell id="7QcKzcswOJJCugYxThSB-20" value="Вывод результата" style="html=1;align=center;verticalAlign=top;rounded=1;absoluteArcSize=1;arcSize=10;dashed=0;whiteSpace=wrap;" vertex="1" parent="1">
          <mxGeometry x="380" y="620" width="140" height="40" as="geometry" />
        </mxCell>
        <mxCell id="7QcKzcswOJJCugYxThSB-27" style="edgeStyle=none;rounded=0;orthogonalLoop=1;jettySize=auto;html=1;entryX=0.5;entryY=0;entryDx=0;entryDy=0;" edge="1" parent="1" source="7QcKzcswOJJCugYxThSB-25" target="7QcKzcswOJJCugYxThSB-2">
          <mxGeometry relative="1" as="geometry" />
        </mxCell>
        <mxCell id="7QcKzcswOJJCugYxThSB-25" value="" style="ellipse;fillColor=strokeColor;html=1;" vertex="1" parent="1">
          <mxGeometry x="205" y="70" width="30" height="30" as="geometry" />
        </mxCell>
        <mxCell id="dZgzBzfw7MHjHtB-s-9Q-3" style="edgeStyle=none;rounded=0;orthogonalLoop=1;jettySize=auto;html=1;exitX=0.5;exitY=1;exitDx=0;exitDy=0;entryX=0.5;entryY=0;entryDx=0;entryDy=0;" edge="1" parent="1" source="dZgzBzfw7MHjHtB-s-9Q-1" target="7QcKzcswOJJCugYxThSB-20">
          <mxGeometry relative="1" as="geometry" />
        </mxCell>
        <mxCell id="dZgzBzfw7MHjHtB-s-9Q-1" value="Рассчет калорий" style="html=1;align=center;verticalAlign=top;rounded=1;absoluteArcSize=1;arcSize=10;dashed=0;whiteSpace=wrap;" vertex="1" parent="1">
          <mxGeometry x="380" y="545" width="140" height="40" as="geometry" />
        </mxCell>
      </root>
    </mxGraphModel>
  </diagram>
</mxfile>
